<?xml version="1.0" encoding="UTF-8" standalone="no"?>
<svg width="153px" height="152px" viewBox="0 0 153 152" version="1.1" xmlns="http://www.w3.org/2000/svg" xmlns:xlink="http://www.w3.org/1999/xlink" xmlns:sketch="http://www.bohemiancoding.com/sketch/ns">
    <!-- Generator: Sketch 3.3.2 (12043) - http://www.bohemiancoding.com/sketch -->
    <title>Artboard 1 Copy 4</title>
    <desc>Created with Sketch.</desc>
    <defs></defs>
    <g id="Page-1" stroke="none" stroke-width="1" fill="none" fill-rule="evenodd" sketch:type="MSPage">
        <g id="Artboard-1-Copy-4" sketch:type="MSArtboardGroup"></g>
        <g id="Imported-EPS" sketch:type="MSLayerGroup" fill="#000000">
            <g id="Page-1" sketch:type="MSShapeGroup">
                <path d="M67.123,140.215 C67.123,146.807 61.779,152.151 55.187,152.151 C48.594,152.151 43.25,146.807 43.25,140.215 C43.25,133.622 48.594,128.278 55.187,128.278 C61.779,128.278 67.123,133.622 67.123,140.215" id="Fill-1"></path>
                <path d="M131.694,140.215 C131.694,146.807 126.35,152.151 119.758,152.151 C113.165,152.151 107.821,146.807 107.821,140.215 C107.821,133.622 113.165,128.278 119.758,128.278 C126.35,128.278 131.694,133.622 131.694,140.215" id="Fill-2"></path>
                <path d="M152.337,24.052 L142.059,82.744 C141.081,88.353 136.147,92.579 130.259,92.579 L46.583,92.579 L48.659,104.236 L131.176,104.242 C134.47,104.242 137.144,106.923 137.144,110.22 C137.144,113.518 134.47,116.194 131.176,116.194 L50.074,116.194 L50.074,116.188 C43.481,116.188 38.129,112.276 36.712,104.236 L36.702,104.236 L20.303,12.133 L6.315,12.133 C3.012,12.133 0.331,9.463 0.331,6.16 C0.331,2.857 3.012,0.176 6.315,0.176 L18.68,0.176 L18.674,0.181 C25.267,0.181 30.337,1.922 32.262,12.133 L32.26,12.133 L34.382,24.052 L152.337,24.052" id="Fill-3"></path>
            </g>
        </g>
    </g>
</svg>