<?xml version="1.0" encoding="utf-8"?>
<!-- Generator: Adobe Illustrator 19.1.0, SVG Export Plug-In . SVG Version: 6.00 Build 0)  -->
<svg version="1.1" id="Layer_1" xmlns="http://www.w3.org/2000/svg" xmlns:xlink="http://www.w3.org/1999/xlink" x="0px" y="0px"
	 viewBox="0 0 312.6 188.4" style="enable-background:new 0 0 312.6 188.4;" xml:space="preserve">
<g id="cash">
	<g>
		<polygon points="113.1,53.7 113.1,65.6 217.2,65.6 229.2,65.6 229.2,77.6 229.2,129.6 241.1,129.6 241.1,53.7 		"/>
	</g>
	<path d="M217.2,77.6v75.9h-128V77.6H217.2 M171.2,115.5c0-9.9-8.1-18-18-18c-9.9,0-18,8.1-18,18s8.1,18,18,18
		C163.1,133.5,171.2,125.5,171.2,115.5z M101.1,109.6h12v-8h8v-12h-20L101.1,109.6z M121.1,141.5v-12h-8v-8h-12v20L121.1,141.5z
		 M205.2,89.5h-20v12h8v8h12L205.2,89.5z M205.3,141.5v-20h-12v8h-8v12L205.3,141.5z"/>
</g>
</svg>
