<?xml version="1.0" encoding="UTF-8" standalone="no"?>
<svg width="123px" height="125px" viewBox="0 0 123 125" version="1.1" xmlns="http://www.w3.org/2000/svg" xmlns:xlink="http://www.w3.org/1999/xlink" xmlns:sketch="http://www.bohemiancoding.com/sketch/ns">
    <!-- Generator: Sketch 3.3.2 (12043) - http://www.bohemiancoding.com/sketch -->
    <title>Artboard 1 Copy 3</title>
    <desc>Created with Sketch.</desc>
    <defs></defs>
    <g id="Page-1" stroke="none" stroke-width="1" fill="none" fill-rule="evenodd" sketch:type="MSPage">
        <g id="Artboard-1-Copy-3" sketch:type="MSArtboardGroup" fill="#000000">
            <path d="M73.0129627,26.506608 C69.8248094,23.315054 64.6557501,23.315054 61.468447,26.506608 L18.1775759,69.8425383 L18.1882031,69.8535906 L16.9150672,71.1301272 C16.9150672,71.1301272 12.8546352,75.2190401 3.68720658,104.814455 C3.62301843,105.021047 3.55925536,105.226789 3.49464212,105.436357 C3.33098359,105.966441 3.1656247,106.505451 2.99899055,107.051263 C2.85148533,107.533737 2.70227975,108.026413 2.552224,108.522064 C2.42597313,108.94035 2.30057244,109.353535 2.17262122,109.780747 C1.88186163,110.749521 1.58770136,111.735298 1.28716477,112.753807 C0.62870484,114.988915 -0.980674951,120.029598 0.839122959,121.854071 C2.59133202,123.611807 7.68472575,122.06534 9.91345745,121.404329 C10.9243146,121.104643 11.9032902,120.810908 12.8652623,120.520998 C13.3090533,120.386671 13.7396665,120.255319 14.1741055,120.123117 C14.6408512,119.981138 15.1054714,119.839584 15.5603146,119.69973 C16.1350324,119.523319 16.7012484,119.349033 17.2581125,119.176023 C17.4243216,119.124587 17.5871299,119.073577 17.7520637,119.022141 C45.9098338,110.25472 50.9645446,106.139876 51.3849557,105.763674 C51.3879313,105.761124 51.3879313,105.761124 51.3900568,105.759423 C51.4079104,105.742845 51.4202379,105.732218 51.4202379,105.732218 L52.723555,104.4255 L52.811123,104.512643 L93.2169278,64.0651794 L93.2165027,64.0647544 L96.101994,61.1758624 C99.2901473,57.9847334 99.2901473,52.8109983 96.101994,49.6194443 L73.0129627,26.506608 L73.0129627,26.506608 Z M46.7710602,100.506197 C46.735778,100.530427 46.6877432,100.561458 46.6371578,100.593765 C46.6091021,100.612044 46.5750951,100.633298 46.5419383,100.653702 C46.5079313,100.675382 46.4705237,100.698336 46.4314156,100.722566 C46.3965585,100.743395 46.360001,100.7655 46.3213181,100.78888 C44.9771926,101.59357 41.0319592,103.66927 31.4581473,107.13543 C30.3397432,107.539688 29.1210184,107.969026 27.8449069,108.411542 L14.2353181,94.7875 C14.6786839,93.5020366 15.108447,92.274385 15.5148303,91.147054 C18.9729139,81.5328589 21.0469139,77.5761481 21.8469278,76.233723 C21.8664818,76.2018415 21.8839104,76.1725105 21.9017641,76.1431794 C21.9298198,76.09727 21.9557501,76.0543362 21.9804052,76.0148031 C21.9999592,75.9833467 22.0203634,75.950615 22.0373669,75.9242596 C22.0696735,75.8736742 22.1007048,75.8260645 22.1249348,75.7903571 L23.1209139,74.7914024 L47.7891439,99.4855627 L46.7710602,100.506197 L46.7710602,100.506197 Z M119.18975,26.506608 L96.1007188,3.39334669 C92.9129906,0.20221777 87.7447815,0.20221777 84.5566282,3.39334669 L78.7847954,9.17155575 C75.5970672,12.3626847 75.5970672,17.5368449 78.7847954,20.7279739 L101.873402,43.8408101 C105.060705,47.031939 110.229764,47.031939 113.417917,43.8408101 L119.18975,38.062601 C122.377903,34.8714721 122.377903,29.6968868 119.18975,26.506608 L119.18975,26.506608 Z" id="Imported-Layers" sketch:type="MSShapeGroup"></path>
        </g>
    </g>
</svg>