<?xml version="1.0" encoding="UTF-8" standalone="no"?>
<svg width="37px" height="56px" viewBox="0 0 37 56" version="1.1" xmlns="http://www.w3.org/2000/svg" xmlns:xlink="http://www.w3.org/1999/xlink" xmlns:sketch="http://www.bohemiancoding.com/sketch/ns">
    <!-- Generator: Sketch 3.3.2 (12043) - http://www.bohemiancoding.com/sketch -->
    <title>Artboard 1 Copy 8</title>
    <desc>Created with Sketch.</desc>
    <defs></defs>
    <g id="Page-1" stroke="none" stroke-width="1" fill="none" fill-rule="evenodd" sketch:type="MSPage">
        <g id="Artboard-1-Copy-8" sketch:type="MSArtboardGroup" fill="#1D1D1B">
            <g id="Imported-Layers" sketch:type="MSLayerGroup" transform="translate(0.000000, 2.000000)">
                <path d="M15.2541818,12.35325 C15.2541818,12.7075 14.9596364,13 14.5963636,13 L12.6327273,13 C12.276,13 11.9814545,12.7075 11.9814545,12.35325 L11.9814545,0.65325 C11.9814545,0.2925 11.6869091,0 11.3236364,0 L9.36,0 C9.00327273,0 8.70872727,0.2925 8.70872727,0.65325 L8.70872727,12.35325 C8.70872727,12.7075 8.41418182,13 8.05090909,13 L6.08727273,13 C5.73054545,13 5.436,12.7075 5.436,12.35325 L5.436,0.65325 C5.436,0.2925 5.14145455,0 4.77818182,0 L2.82109091,0 C2.45781818,0 2.16327273,0.2925 2.16327273,0.65325 L2.16327273,18.9865 C2.16327273,19.34075 2.40545455,19.799 2.70654545,19.994 L6.47018182,22.4575 C6.77127273,22.65575 7.03963636,22.8215 7.07236364,22.8215 C7.09854545,22.8215 7.12472727,23.11075 7.12472727,23.46825 L7.02327273,51.35325 C7.02327273,51.7075 7.31454545,52 7.67454545,52 L13.0123636,52 C13.3756364,52 13.6701818,51.7075 13.6701818,51.35325 L13.6701818,23.46825 C13.6701818,23.11075 13.9123636,22.65575 14.2134545,22.4575 L17.9770909,19.994 C18.2781818,19.799 18.5269091,19.34075 18.5269091,18.9865 L18.5269091,0.65325 C18.5269091,0.2925 18.2323636,0 17.8756364,0 L15.9054545,0 C15.5487273,0 15.2541818,0.2925 15.2541818,0.65325 L15.2541818,12.35325" id="Fill-1" sketch:type="MSShapeGroup"></path>
                <path d="M26.7087273,0 C25.8414545,0 25.3341818,1.04 25.3341818,1.04 C25.1738182,1.365 25.0461818,1.9175 25.0461818,2.27825 L25.0461818,28.60325 C25.0461818,28.9575 25.0396364,29.25 25.0330909,29.25 C25.0298182,29.25 25.02,29.5425 25.0298182,29.90325 L25.0723636,48.10325 L25.0723636,49.40325 L25.0723636,51.35325 C25.0723636,51.7075 25.3669091,52 25.7301818,52 L30.9665455,52 C31.3232727,52 31.6178182,51.7075 31.6178182,51.35325 L31.6178182,49.40325 L31.6178182,48.10325 L31.6178182,46.15325 L31.6178182,44.85325 L31.6178182,29.90325 C31.6178182,29.5425 31.9123636,29.25 32.2756364,29.25 L34.2392727,29.25 C34.596,29.25 34.8905455,28.9575 34.8905455,28.60325 C34.8905455,28.60325 34.8905455,0 26.7087273,0" id="Fill-2" sketch:type="MSShapeGroup"></path>
            </g>
        </g>
    </g>
</svg>