<?xml version="1.0" encoding="UTF-8" standalone="no"?>
<svg width="63px" height="75px" viewBox="0 0 63 75" version="1.1" xmlns="http://www.w3.org/2000/svg" xmlns:xlink="http://www.w3.org/1999/xlink" xmlns:sketch="http://www.bohemiancoding.com/sketch/ns">
    <!-- Generator: Sketch 3.3.3 (12081) - http://www.bohemiancoding.com/sketch -->
    <title>Page 1</title>
    <desc>Created with Sketch.</desc>
    <defs></defs>
    <g id="Delivery-Hero" stroke="none" stroke-width="1" fill="none" fill-rule="evenodd" sketch:type="MSPage">
        <g id="Autoconfirmation-dotted" sketch:type="MSArtboardGroup" transform="translate(-669.000000, -697.000000)" fill="#343B46">
            <g id="Imported-EPS-Copy" sketch:type="MSLayerGroup" transform="translate(669.000000, 697.000000)">
                <path d="M30.9602821,0.0055715538 C28.7005716,0.0559628581 26.4002426,0.438441119 24.1471637,1.19265851 C14.0605321,4.57135416 7.89067683,14.2869629 8.55300578,24.4007455 C8.26784789,24.5568759 8.00341368,24.7452237 7.74975578,24.994702 C7.24326894,25.4936585 6.86941368,26.2478759 6.86941368,27.1111368 L6.86941368,33.3067889 C6.86941368,34.1708759 7.24326894,34.9242672 7.74975578,35.4240498 C8.25624262,35.9238324 8.87132157,36.1947889 9.43334789,36.3790063 C10.4512953,36.7135716 11.3581637,36.7391802 11.5322426,36.7408324 L11.6350321,36.7408324 C11.7021768,36.7408324 11.777611,36.7292672 11.8430979,36.7143976 C12.1141637,36.6730933 12.5825189,36.556615 13.0085979,36.2245281 C13.6535189,35.7214411 14.1740979,34.7499629 14.1740979,33.3067889 L14.1740979,27.1111368 C14.1740979,25.6687889 13.6535189,24.6973107 13.0085979,24.1942237 C12.5725716,23.854702 12.0843216,23.7431802 11.8165716,23.7035281 C11.7477689,23.6894846 11.6806242,23.6779194 11.6093347,23.6779194 C11.6093347,23.6779194 11.3664531,23.6952672 11.194861,23.7035281 C10.8417295,14.9503107 16.2406637,6.65722373 25.0026374,3.72296286 C35.6454926,0.158397641 47.1487953,5.8674846 50.7257031,16.4752672 C51.51569,18.8205281 51.8580453,21.2624411 51.7618874,23.7035281 C51.5902953,23.6952672 51.3474137,23.6779194 51.3474137,23.6779194 C51.2761242,23.6779194 51.2098084,23.6894846 51.1401768,23.7035281 C50.8724268,23.7431802 50.3841768,23.854702 49.9481505,24.1942237 C49.3032295,24.6973107 48.7826505,25.6687889 48.7826505,27.1111368 L48.7826505,33.3067889 C48.7826505,34.7499629 49.3032295,35.7214411 49.9481505,36.2245281 C50.3742295,36.556615 50.8434137,36.6730933 51.1144795,36.7143976 C51.1791374,36.7292672 51.2545716,36.7408324 51.3208874,36.7408324 L51.4253347,36.7408324 C51.5985847,36.7391802 52.5054531,36.7135716 53.5234005,36.3790063 C54.0854268,36.1947889 54.7005058,35.9238324 55.2069926,35.4240498 C55.7134795,34.9242672 56.0873347,34.1708759 56.0873347,33.3067889 L56.0873347,27.1111368 C56.0873347,26.2478759 55.7134795,25.4936585 55.2069926,24.994702 C54.9533347,24.7452237 54.6889005,24.5568759 54.4037426,24.4007455 C54.5985453,21.4408759 54.223861,18.4694411 53.26394,15.6235716 C49.9837953,5.89391938 40.7509795,-0.210863229 30.9602821,0.0055715538 L30.9602821,0.0055715538 Z M31.4783742,8.6794846 C18.0602031,8.6794846 18.2152163,20.3479629 18.2152163,20.3479629 L18.1372953,26.543615 C17.0414268,26.5287455 16.7902558,27.6117455 16.7902558,29.7703107 C16.7902558,33.0060933 18.7730979,36.4112237 20.5727426,38.1600498 C21.1828479,40.7043976 22.345861,42.9331802 23.9142295,44.6398759 C23.8595189,44.6737455 23.7874005,44.7100933 23.73269,44.7431368 C18.3851505,47.9937889 12.0188347,50.1829194 7.8533742,52.3844411 C6.7052821,52.991615 5.47843999,54.0762672 4.48618999,55.4310498 C3.80976894,56.3628759 3.23033473,57.3393107 2.72467683,58.3735716 C2.70561104,58.4107455 2.69068999,58.4660933 2.67245315,58.5024411 C2.60365052,58.6461802 2.5315321,58.7709194 2.46521631,58.9154846 C1.45970315,61.0616585 0.786597886,63.355702 0.392847886,65.6538759 C0.384558412,65.6960063 0.374611044,65.7397889 0.367150517,65.7827455 C0.348913675,65.8909629 0.305808412,66.0107455 0.289229465,66.1181368 C0.218768938,66.5163107 0.164887359,66.9144846 0.107689991,67.3060498 C0.0596110436,67.6282237 0.00572946463,68.3122237 0.0305978857,68.6484411 C0.0272820962,68.6682672 0.00572946463,68.6790063 0.0040715699,68.6996585 C-0.144310009,70.7970933 3.81225578,71.487702 3.81225578,71.487702 C5.29109789,71.9238759 8.00009789,72.4145716 11.2984795,72.855702 C17.1840058,73.8238759 23.2270321,74.1460498 29.1465453,74.3277889 C29.7218347,74.3451368 30.3095584,74.3509194 30.9345847,74.3533976 L31.0639005,74.3533976 C31.3747558,74.3533976 31.7005321,74.356702 32.0221637,74.3533976 C32.64719,74.3500933 33.2349137,74.3451368 33.8102031,74.3277889 C39.7272295,74.1460498 45.7495321,73.8230498 51.6325716,72.855702 C54.9359268,72.4137455 57.6648216,71.9238759 59.1444926,71.487702 C59.1444926,71.487702 63.1010584,70.7970933 62.9526768,68.6996585 C62.949361,68.6798324 62.9278084,68.6682672 62.9261505,68.6484411 C62.9510189,68.3122237 62.8971374,67.6282237 62.8490584,67.3060498 C62.7678216,66.7467889 62.6733216,66.1734846 62.5639005,65.6018324 C62.1278742,63.0888759 61.3561242,60.581702 60.1806768,58.2703107 C60.1674137,58.244702 60.1682426,58.2190933 60.1549795,58.1926585 C59.6700453,57.2261368 59.1055321,56.3058759 58.4713874,55.4310498 C57.4783084,54.0762672 56.2522953,52.991615 55.1033742,52.3844411 C50.9379137,50.1829194 44.5715979,47.9937889 39.2240584,44.7431368 C39.1693479,44.7100933 39.0972295,44.6737455 39.0425189,44.6398759 C40.6108874,42.9331802 41.7747295,40.7043976 42.3840058,38.1600498 C44.1836505,36.4112237 46.1664926,33.0060933 46.1664926,29.7703107 C46.1664926,27.6117455 45.9153216,26.5287455 44.8194531,26.543615 L44.7415321,20.3479629 C44.7415321,20.3479629 44.8965453,8.6794846 31.4783742,8.6794846 L31.4783742,8.6794846 Z" id="Page-1" sketch:type="MSShapeGroup"></path>
            </g>
        </g>
    </g>
</svg>