<?xml version="1.0" encoding="UTF-8" standalone="no"?>
<svg width="76px" height="76px" viewBox="0 0 76 76" version="1.1" xmlns="http://www.w3.org/2000/svg" xmlns:xlink="http://www.w3.org/1999/xlink" xmlns:sketch="http://www.bohemiancoding.com/sketch/ns">
    <!-- Generator: Sketch 3.3.2 (12043) - http://www.bohemiancoding.com/sketch -->
    <title>Artboard 1 Copy 10</title>
    <desc>Created with Sketch.</desc>
    <defs></defs>
    <g id="Page-1" stroke="none" stroke-width="1" fill="none" fill-rule="evenodd" sketch:type="MSPage">
        <g id="Artboard-1-Copy-10" sketch:type="MSArtboardGroup" fill="#000000">
            <path d="M74.5098039,37.254902 L68.5235294,47.9352941 L67.3955882,60.2784314 L56.5730392,65.2127451 L48.770098,74.5098039 L37.2563725,71.8102941 L25.7431373,74.5098039 L17.9289216,65.2127451 L7.11470588,60.2784314 L5.98382353,47.9416667 L0,37.254902 L5.98382353,26.575 L7.11470588,14.2377451 L17.9289216,9.29705882 L25.7431373,0 L37.2563725,2.6995098 L48.770098,0 L56.5730392,9.29705882 L67.3955882,14.2377451 L68.5235294,26.575 L74.5098039,37.254902 L74.5098039,37.254902 Z M19.9156863,50.7264706 L23.7833333,54.595098 L54.5632353,23.8151961 L50.6720588,19.9470588 L19.9156863,50.7264706 L19.9156863,50.7264706 Z M30.8568627,25.4181373 C30.8568627,22.3965686 28.4078431,19.9470588 25.3857843,19.9470588 C22.3642157,19.9470588 19.9156863,22.3965686 19.9156863,25.4181373 C19.9156863,28.4392157 22.3642157,30.8887255 25.3857843,30.8887255 C28.4078431,30.8887255 30.8568627,28.4392157 30.8568627,25.4181373 L30.8568627,25.4181373 Z M54.5612745,49.1230392 C54.5612745,46.1014706 52.1122549,43.652451 49.0906863,43.652451 C46.0696078,43.652451 43.620098,46.1014706 43.620098,49.1230392 C43.620098,52.1441176 46.0696078,54.5936275 49.0906863,54.5936275 C52.1122549,54.5936275 54.5612745,52.1441176 54.5612745,49.1230392 L54.5612745,49.1230392 Z" id="Imported-Layers" sketch:type="MSShapeGroup"></path>
        </g>
    </g>
</svg>