<?xml version="1.0" encoding="utf-8"?>
<!-- Generator: Adobe Illustrator 18.1.1, SVG Export Plug-In . SVG Version: 6.00 Build 0)  -->
<svg version="1.1" id="Layer_1" xmlns="http://www.w3.org/2000/svg" xmlns:xlink="http://www.w3.org/1999/xlink" x="0px" y="0px"
	 viewBox="0 0 142.8 19" enable-background="new 0 0 142.8 19" xml:space="preserve">
<path fill="#D62028" d="M137.8,1.7c-2.7-1.1-5.7-0.3-7.6,1.8l-7.2,7.7c-0.1,0.1-0.1,0.2,0.1,0.3l1.9,0.1c0.2,0,0.2,0.1,0.1,0.2
	l-4.7,5.1c-0.1,0.1,0,0.2,0.1,0.2l6.7-2.1c0.1,0,0.3,0.1,0.2,0.2l0,0l-0.9,1.6l0,0c0,0.1,0,0.2,0.2,0.2l9.7-2.2
	c2.3-0.4,4.4-1.9,5.3-4.2C143,7.1,141.3,3.1,137.8,1.7z M138.9,8.7C138.9,8.7,138.9,8.7,138.9,8.7l-2.2,0.9l-0.1,0l-0.5,2.4
	c0,0.1-0.1,0.1-0.2,0l-1.6-1.9l0,0l-8.9,3.8c0,0,0,0,0,0c0,0-0.1,0-0.1-0.1c0,0,0,0,0,0l7.7-5.7l-1-2.2c0-0.1,0-0.2,0.2-0.2h0
	l2.4,0.6l1.8-1.6v0c0.1-0.1,0.2,0,0.2,0.1l0.2,2.4l2.1,1.2C139,8.5,139,8.7,138.9,8.7z"/>
<g>
	<path fill="#D62028" d="M3.5,10.2H2.4l-0.6,3.2H0.6L2.3,5h1.2h1c0.4,0,0.7,0,1,0.1C6.4,5.3,6.9,6,6.9,7C6.9,8.9,5.5,10.2,3.5,10.2z
		 M4.9,6.1C4.7,6,4.4,6,4.2,6h-1L2.6,9.3h1.1c1.2,0,1.9-1,1.9-2.1C5.6,6.6,5.4,6.2,4.9,6.1z"/>
	<path fill="#D62028" d="M9.4,13.5c-1.6,0-2.4-0.9-2.4-2.4c0-2.1,1.3-4.1,3.6-4.1c1.6,0,2.4,0.9,2.4,2.4C13,11.6,11.7,13.5,9.4,13.5
		z M10.5,8.1c-1.4,0-2.3,1.4-2.3,3.1c0,0.9,0.3,1.5,1.3,1.5c1.4,0,2.2-1.4,2.2-3C11.8,8.7,11.5,8.1,10.5,8.1z"/>
	<path fill="#D62028" d="M23.2,7.3c-0.9,2-1.9,4.1-3.1,6.1h-1.2l-0.4-4l0-0.8h0l-0.3,0.8l-1.9,4h-1.3c-0.3-2-0.6-4.1-0.6-6.1h1.1
		c0,1.3,0.1,2.7,0.3,3.9c0,0.3,0.1,0.7,0.1,1.1h0l0.5-1.1l1.9-4h1.1l0.4,4l0.1,1h0c0.2-0.4,0.3-0.7,0.5-1.1c0.6-1.3,1.2-2.6,1.8-3.9
		H23.2z"/>
	<path fill="#D62028" d="M24.4,10.7c0,0.2,0,0.4,0,0.6c0,0.9,0.4,1.3,1.4,1.3c0.6,0,1.3-0.1,1.8-0.3v0.9c-0.6,0.2-1.3,0.3-2.1,0.3
		c-1.6,0-2.3-0.7-2.3-2.1c0-2,1-4.3,3.5-4.3c1.3,0,1.9,0.6,1.9,1.5C28.6,9.6,28,10.6,24.4,10.7z M26.6,8c-1,0-1.7,0.8-2,1.9
		c2.4,0,2.9-0.6,2.9-1.2C27.5,8.3,27.2,8,26.6,8z"/>
	<path fill="#D62028" d="M33.5,8.3c-0.1,0-0.3-0.1-0.5-0.1c-0.6,0-1.8,1.3-2,2.5l-0.5,2.7h-1.1l1.2-6.1h0.9l-0.1,1.4
		c0.6-0.9,1.3-1.5,1.9-1.5c0.3,0,0.5,0,0.8,0.1L33.5,8.3z"/>
	<path fill="#D62028" d="M35,10.7c0,0.2,0,0.4,0,0.6c0,0.9,0.4,1.3,1.4,1.3c0.6,0,1.3-0.1,1.8-0.3v0.9c-0.6,0.2-1.3,0.3-2.1,0.3
		c-1.6,0-2.3-0.7-2.3-2.1c0-2,1-4.3,3.5-4.3c1.3,0,1.9,0.6,1.9,1.5C39.2,9.6,38.6,10.6,35,10.7z M37.2,8c-1,0-1.7,0.8-2,1.9
		c2.4,0,2.9-0.6,2.9-1.2C38,8.3,37.7,8,37.2,8z"/>
	<path fill="#D62028" d="M44.7,13.4h-0.9L44,12c-0.5,0.9-1.3,1.5-2.2,1.5c-1.2,0-1.7-0.9-1.7-2.1c0-1.9,1-4.2,3.6-4.2
		c0.5,0,0.9,0.1,1.2,0.1l0.6-2.9h1.1L44.7,13.4z M42,12.6c0.9,0,2-1.5,2.3-2.9l0.3-1.4c-0.3-0.1-0.7-0.2-1.1-0.2
		c-1.7,0-2.3,1.8-2.3,3.2C41.2,12.2,41.5,12.6,42,12.6z"/>
	<path fill="#D62028" d="M52.1,13.5c-0.8,0-1.5-0.1-2.2-0.3l1.7-8.7h1.1l-0.6,3.2c-0.1,0.3-0.2,0.7-0.3,1c0.5-0.8,1.3-1.4,2.1-1.4
		c1.2,0,1.7,0.9,1.7,2.1C55.7,11.2,54.7,13.5,52.1,13.5z M53.7,8.1c-0.9,0-2,1.5-2.3,2.9l-0.3,1.4c0.3,0.1,0.7,0.2,1.1,0.2
		c1.7,0,2.3-1.8,2.3-3.2C54.5,8.5,54.2,8.1,53.7,8.1z"/>
	<path fill="#D62028" d="M62.3,7.3C61.1,10,60,12,59.1,13.4c-1.3,2-2.1,2.6-3,2.6c-0.3,0-0.5-0.1-0.7-0.1l0.2-0.8h0.6
		c0.4,0,0.9-0.4,1.8-1.7c-0.4-1.7-0.8-4-1-6.1h1.1c0.1,1.4,0.3,2.8,0.5,4.1c0,0.3,0.1,0.6,0.1,0.9h0c0.1-0.3,0.3-0.6,0.5-0.9
		c0.7-1.3,1.3-2.7,1.9-4.1H62.3z"/>
	<path fill="#D62028" d="M70,13.4h-3h-1.2L67.4,5h1.2l-1.4,7.4h3L70,13.4z"/>
	<path fill="#D62028" d="M72.2,13.4h-1.1l1-5.3h-1l0.2-0.9h2.1L72.2,13.4z M73.1,6.1c-0.4,0-0.7-0.3-0.7-0.7c0-0.5,0.3-0.8,0.8-0.8
		s0.7,0.3,0.7,0.7C73.9,5.8,73.6,6.1,73.1,6.1z"/>
	<path fill="#D62028" d="M75.5,10.7c0,0.2,0,0.4,0,0.6c0,0.9,0.4,1.3,1.4,1.3c0.6,0,1.3-0.1,1.8-0.3v0.9c-0.6,0.2-1.3,0.3-2.1,0.3
		c-1.6,0-2.3-0.7-2.3-2.1c0-2,1-4.3,3.5-4.3c1.3,0,1.9,0.6,1.9,1.5C79.6,9.6,79.1,10.6,75.5,10.7z M77.6,8c-1,0-1.7,0.8-2,1.9
		c2.4,0,2.9-0.6,2.9-1.2C78.5,8.3,78.2,8,77.6,8z"/>
	<path fill="#D62028" d="M84.9,5.2h-0.6c-1,0-1.2,0.7-1.3,1.5l-0.1,0.7h1.4l-0.2,0.9h-1.4l-1.1,5.6c-0.3,1.4-0.9,2.3-2.4,2.3
		c-0.3,0-0.6,0-0.8-0.1l0.2-0.8h0.6c1,0,1.2-0.7,1.3-1.5l1.1-5.5h-0.9l0.2-0.9h0.9l0.1-0.7c0.3-1.4,0.8-2.3,2.4-2.3
		c0.3,0,0.6,0,0.8,0.1L84.9,5.2z"/>
	<path fill="#D62028" d="M85.4,10.7c0,0.2,0,0.4,0,0.6c0,0.9,0.4,1.3,1.4,1.3c0.6,0,1.3-0.1,1.8-0.3v0.9c-0.6,0.2-1.3,0.3-2.1,0.3
		c-1.6,0-2.3-0.7-2.3-2.1c0-2,1-4.3,3.5-4.3c1.3,0,1.9,0.6,1.9,1.5C89.6,9.6,89,10.6,85.4,10.7z M87.6,8c-1,0-1.7,0.8-2,1.9
		c2.4,0,2.9-0.6,2.9-1.2C88.5,8.3,88.2,8,87.6,8z"/>
	<path fill="#D62028" d="M94.5,8.3c-0.1,0-0.3-0.1-0.5-0.1c-0.6,0-1.8,1.3-2,2.5l-0.5,2.7h-1.1l1.2-6.1h0.9l-0.1,1.4
		c0.6-0.9,1.3-1.5,1.9-1.5c0.3,0,0.5,0,0.8,0.1L94.5,8.3z"/>
	<path fill="#D62028" d="M100.6,9.6l-0.7,3.8h-1.1l0.7-3.6c0.1-0.3,0.1-0.6,0.1-0.8c0-0.6-0.2-0.9-0.8-0.9c-1,0-2.1,1.5-2.3,2.8
		L96,13.4h-1.1l1.8-9h1.1l-0.6,3.2c-0.1,0.3-0.2,0.7-0.3,1c0.5-0.8,1.3-1.4,2.3-1.4c1.2,0,1.6,0.7,1.6,1.7
		C100.7,9,100.7,9.3,100.6,9.6z"/>
	<path fill="#D62028" d="M103.1,10.7c0,0.2,0,0.4,0,0.6c0,0.9,0.4,1.3,1.4,1.3c0.6,0,1.3-0.1,1.8-0.3v0.9c-0.6,0.2-1.3,0.3-2.1,0.3
		c-1.6,0-2.3-0.7-2.3-2.1c0-2,1-4.3,3.5-4.3c1.3,0,1.9,0.6,1.9,1.5C107.3,9.6,106.7,10.6,103.1,10.7z M105.3,8c-1,0-1.7,0.8-2,1.9
		c2.4,0,2.9-0.6,2.9-1.2C106.2,8.3,105.9,8,105.3,8z"/>
	<path fill="#D62028" d="M109.4,11.9c-0.1,0.4,0,0.7,0.4,0.7h0.5l-0.2,0.8c-0.2,0-0.5,0.1-0.8,0.1c-0.8,0-1.3-0.3-1.1-1.4l1.5-7.7
		h1.1L109.4,11.9z"/>
	<path fill="#D62028" d="M116.1,13.4h-0.9l0.2-1.4c-0.5,0.9-1.3,1.5-2.2,1.5c-1.2,0-1.7-0.9-1.7-2.1c0-1.9,1-4.2,3.6-4.2
		c0.5,0,0.9,0.1,1.2,0.1l0.6-2.9h1.1L116.1,13.4z M113.4,12.6c0.9,0,2-1.5,2.3-2.9l0.3-1.4c-0.3-0.1-0.7-0.2-1.1-0.2
		c-1.7,0-2.3,1.8-2.3,3.2C112.6,12.2,112.9,12.6,113.4,12.6z"/>
</g>
</svg>
