<?xml version="1.0" encoding="UTF-8" standalone="no"?>
<svg width="2514px" height="312px" viewBox="0 0 2514 312" version="1.1" xmlns="http://www.w3.org/2000/svg" xmlns:xlink="http://www.w3.org/1999/xlink" xmlns:sketch="http://www.bohemiancoding.com/sketch/ns">
    <!-- Generator: Sketch 3.3.2 (12043) - http://www.bohemiancoding.com/sketch -->
    <title>Artboard 2</title>
    <desc>Created with Sketch.</desc>
    <defs></defs>
    <g id="Page-1" stroke="none" stroke-width="1" fill="none" fill-rule="evenodd" sketch:type="MSPage">
        <g id="Artboard-2" sketch:type="MSArtboardGroup" fill="#D61F28">
            <g id="Imported-Layers" sketch:type="MSLayerGroup" transform="translate(7.000000, 12.000000)">
                <path d="M2421.765,8.913 C2374.118,-10.499 2321.177,3.619 2287.647,40.677 L2160.588,176.56 C2158.824,178.325 2158.824,180.089 2162.353,181.855 L2195.882,183.619 C2199.412,183.619 2199.412,185.383 2197.647,187.149 L2114.706,277.149 C2112.941,278.913 2114.706,280.678 2116.47,280.678 L2234.706,243.619 C2236.47,243.619 2240,245.383 2238.235,247.149 L2222.353,275.383 C2222.353,277.149 2222.353,278.913 2225.882,278.913 L2397.059,240.089 C2437.647,233.031 2474.706,206.56 2490.588,165.973 C2513.529,104.207 2483.529,33.619 2421.765,8.913 L2421.765,8.913 Z M2441.176,132.443 L2441.176,132.443 L2402.353,148.325 L2400.588,148.325 L2391.764,190.678 C2391.764,192.443 2390,192.443 2388.235,190.678 L2360,157.149 L2202.941,224.207 C2202.941,224.207 2201.176,224.207 2201.176,222.443 L2337.059,121.855 L2319.412,83.031 C2319.412,81.267 2319.412,79.501 2322.941,79.501 L2365.294,90.09 L2397.058,61.855 C2398.823,60.09 2400.588,61.855 2400.588,63.619 L2404.117,105.972 L2441.176,127.149 C2442.941,128.913 2442.941,132.443 2441.176,132.443 L2441.176,132.443 Z" id="Fill-1" sketch:type="MSShapeGroup"></path>
                <path d="M51.765,158.913 L32.353,158.913 L21.765,215.383 L0.588,215.383 L30.588,67.149 L69.412,67.149 C76.471,67.149 81.765,67.149 87.059,68.913 C102.941,72.443 111.765,84.796 111.765,102.443 C111.765,135.972 87.059,158.913 51.765,158.913 L51.765,158.913 Z M76.471,86.561 C72.941,84.796 67.647,84.796 64.118,84.796 L46.471,84.796 L35.882,143.031 L55.294,143.031 C76.471,143.031 88.823,125.383 88.823,105.972 C88.823,95.383 85.294,88.325 76.471,86.561 L76.471,86.561 Z" id="Fill-2" sketch:type="MSShapeGroup"></path>
                <path d="M155.882,217.149 C127.647,217.149 113.529,201.267 113.529,174.795 C113.529,137.736 136.471,102.443 177.059,102.443 C205.294,102.443 219.412,118.325 219.412,144.796 C219.412,183.619 196.471,217.149 155.882,217.149 L155.882,217.149 Z M175.294,121.855 C150.588,121.855 134.706,146.56 134.706,176.56 C134.706,192.443 140,203.031 157.647,203.031 C182.353,203.031 196.471,178.325 196.471,150.089 C198.235,132.443 192.941,121.855 175.294,121.855 L175.294,121.855 Z" id="Fill-3" sketch:type="MSShapeGroup"></path>
                <path d="M399.412,107.736 C383.529,143.031 365.882,180.089 344.706,215.383 L323.529,215.383 L316.471,144.796 L316.471,130.677 L311.177,144.796 L277.647,215.383 L254.706,215.383 C249.412,180.089 244.118,143.031 244.118,107.736 L263.529,107.736 C263.529,130.677 265.294,155.383 268.823,176.56 C268.823,181.855 270.588,188.913 270.588,195.973 L279.412,176.56 L312.941,105.972 L332.353,105.972 L341.177,194.207 C344.706,187.149 346.471,181.855 350,174.795 C360.588,151.855 371.177,128.913 381.765,105.972 L399.412,105.972 L399.412,107.736" id="Fill-4" sketch:type="MSShapeGroup"></path>
                <path d="M420.588,167.737 L420.588,178.325 C420.588,194.207 427.647,201.267 445.294,201.267 C455.882,201.267 468.235,199.501 477.059,195.973 L477.059,211.855 C466.47,215.383 454.118,217.149 440,217.149 C411.765,217.149 399.412,204.795 399.412,180.089 C399.412,144.796 417.059,104.207 461.176,104.207 C484.118,104.207 494.706,114.796 494.706,130.677 C494.706,148.325 484.118,165.973 420.588,167.737 L420.588,167.737 Z M459.412,120.09 C441.765,120.09 429.412,134.207 424.118,153.619 C466.471,153.619 475.294,143.031 475.294,132.443 C475.294,125.383 470,120.09 459.412,120.09 L459.412,120.09 Z" id="Fill-5" sketch:type="MSShapeGroup"></path>
                <path d="M581.177,125.383 C579.412,125.383 575.882,123.619 572.353,123.619 C561.765,123.619 540.588,146.56 537.059,167.737 L528.235,215.383 L508.823,215.383 L530,107.736 L545.882,107.736 L544.118,132.443 C554.706,116.561 567.059,105.972 577.647,105.972 C582.941,105.972 586.471,105.972 591.765,107.736 L581.177,125.383" id="Fill-6" sketch:type="MSShapeGroup"></path>
                <path d="M607.647,167.737 L607.647,178.325 C607.647,194.207 614.706,201.267 632.353,201.267 C642.941,201.267 655.294,199.501 664.118,195.973 L664.118,211.855 C653.529,215.383 641.177,217.149 627.059,217.149 C598.824,217.149 586.471,204.795 586.471,180.089 C586.471,144.796 604.118,104.207 648.235,104.207 C671.177,104.207 681.765,114.796 681.765,130.677 C681.765,148.325 671.176,165.973 607.647,167.737 L607.647,167.737 Z M646.471,120.09 C628.823,120.09 616.471,134.207 611.177,153.619 C653.529,153.619 662.353,143.031 662.353,132.443 C660.588,125.383 655.294,120.09 646.471,120.09 L646.471,120.09 Z" id="Fill-7" sketch:type="MSShapeGroup"></path>
                <path d="M778.823,215.383 L762.941,215.383 L766.471,190.678 C757.647,206.56 743.529,217.149 727.647,217.149 C706.471,217.149 697.647,201.267 697.647,180.089 C697.647,146.56 715.294,105.972 761.176,105.972 C770,105.972 777.059,107.736 782.353,107.736 L792.941,56.561 L812.353,56.561 L778.823,215.383 L778.823,215.383 Z M731.177,201.267 C747.059,201.267 766.471,174.795 771.765,150.089 L777.059,125.383 C771.765,123.619 764.706,121.855 757.647,121.855 C727.647,121.855 717.059,153.619 717.059,178.325 C717.059,194.207 722.353,201.267 731.177,201.267 L731.177,201.267 Z" id="Fill-8" sketch:type="MSShapeGroup"></path>
                <path d="M909.412,217.149 C895.294,217.149 882.941,215.383 870.588,211.855 L900.588,58.325 L920,58.325 L909.412,114.796 C907.647,120.09 905.882,127.149 904.118,132.443 C912.941,118.325 927.059,107.736 941.176,107.736 C962.353,107.736 971.176,123.619 971.176,144.796 C972.941,176.56 955.294,217.149 909.412,217.149 L909.412,217.149 Z M937.647,121.855 C921.765,121.855 902.353,148.325 897.059,173.031 L891.765,197.737 C897.059,199.501 904.118,201.267 911.177,201.267 C941.177,201.267 951.765,169.501 951.765,144.796 C951.765,128.913 946.471,121.855 937.647,121.855 L937.647,121.855 Z" id="Fill-9" sketch:type="MSShapeGroup"></path>
                <path d="M1089.412,107.736 C1068.235,155.383 1048.823,190.678 1032.941,215.383 C1010,250.678 995.882,261.267 980,261.267 C974.706,261.267 971.176,259.501 967.647,259.501 L971.176,245.383 L981.765,245.383 C988.823,245.383 997.647,238.325 1013.529,215.383 C1006.47,185.383 999.412,144.796 995.882,107.736 L1015.294,107.736 C1017.059,132.443 1020.588,157.149 1024.117,180.089 C1024.117,185.383 1025.882,190.678 1025.882,195.973 C1027.647,190.678 1031.176,185.383 1034.706,180.089 C1047.059,157.149 1057.647,132.443 1068.235,107.736 L1089.412,107.736" id="Fill-10" sketch:type="MSShapeGroup"></path>
                <path d="M1225.294,215.383 L1151.177,215.383 L1179.412,67.149 L1200.588,67.149 L1175.882,197.737 L1228.823,197.737 L1225.294,215.383" id="Fill-11" sketch:type="MSShapeGroup"></path>
                <path d="M1264.118,215.383 L1244.706,215.383 L1262.353,121.855 L1244.706,121.855 L1248.235,105.972 L1285.294,105.972 L1264.118,215.383 L1264.118,215.383 Z M1280,86.561 C1272.941,86.561 1267.647,81.266 1267.647,74.207 C1267.647,65.383 1272.941,60.09 1281.765,60.09 C1290.588,60.09 1294.118,65.383 1294.118,72.443 C1294.118,81.266 1288.823,86.561 1280,86.561 L1280,86.561 Z" id="Fill-12" sketch:type="MSShapeGroup"></path>
                <path d="M1322.353,167.737 L1322.353,178.325 C1322.353,194.207 1329.412,201.267 1347.059,201.267 C1357.647,201.267 1370,199.501 1378.824,195.973 L1378.824,211.855 C1368.235,215.383 1355.882,217.149 1341.765,217.149 C1313.53,217.149 1301.177,204.795 1301.177,180.089 C1301.177,144.796 1318.824,104.207 1362.941,104.207 C1385.882,104.207 1396.471,114.796 1396.471,130.677 C1394.706,148.325 1385.882,165.973 1322.353,167.737 L1322.353,167.737 Z M1359.412,120.09 C1341.765,120.09 1329.412,134.207 1324.118,153.619 C1366.471,153.619 1375.294,143.031 1375.294,132.443 C1375.294,125.383 1370,120.09 1359.412,120.09 L1359.412,120.09 Z" id="Fill-13" sketch:type="MSShapeGroup"></path>
                <path d="M1488.235,70.677 L1477.647,70.677 C1460,70.677 1456.471,83.031 1454.706,97.149 L1452.941,109.501 L1477.647,109.501 L1474.118,125.383 L1449.412,125.383 L1430,224.207 C1424.706,248.913 1414.118,264.795 1387.647,264.795 C1382.353,264.795 1377.059,264.795 1373.529,263.031 L1377.059,248.913 L1387.647,248.913 C1405.294,248.913 1408.823,236.56 1410.588,222.443 L1430,125.383 L1414.118,125.383 L1417.647,109.501 L1433.529,109.501 L1435.294,97.149 C1440.588,72.443 1449.412,56.561 1477.647,56.561 C1482.941,56.561 1488.235,56.561 1491.765,58.325 L1488.235,70.677" id="Fill-14" sketch:type="MSShapeGroup"></path>
                <path d="M1497.059,167.737 L1497.059,178.325 C1497.059,194.207 1504.118,201.267 1521.765,201.267 C1532.353,201.267 1544.706,199.501 1553.53,195.973 L1553.53,211.855 C1542.941,215.383 1530.588,217.149 1516.471,217.149 C1488.235,217.149 1475.882,204.795 1475.882,180.089 C1475.882,144.796 1493.53,104.207 1537.647,104.207 C1560.588,104.207 1571.177,114.796 1571.177,130.677 C1571.176,148.325 1560.588,165.973 1497.059,167.737 L1497.059,167.737 Z M1535.882,120.09 C1518.235,120.09 1505.882,134.207 1500.588,153.619 C1542.941,153.619 1551.765,143.031 1551.765,132.443 C1551.765,125.383 1546.47,120.09 1535.882,120.09 L1535.882,120.09 Z" id="Fill-15" sketch:type="MSShapeGroup"></path>
                <path d="M1657.647,125.383 C1655.882,125.383 1652.353,123.619 1648.823,123.619 C1638.235,123.619 1617.059,146.56 1613.529,167.737 L1604.706,215.383 L1585.294,215.383 L1606.47,107.736 L1622.353,107.736 L1620.588,132.443 C1631.176,116.561 1643.53,105.972 1654.118,105.972 C1659.412,105.972 1662.941,105.972 1668.235,107.736 L1657.647,125.383" id="Fill-16" sketch:type="MSShapeGroup"></path>
                <path d="M1765.294,148.325 L1752.941,215.383 L1733.529,215.383 L1745.882,151.855 C1747.647,146.56 1747.647,141.267 1747.647,137.736 C1747.647,127.149 1744.118,121.855 1733.529,121.855 C1715.882,121.855 1696.47,148.325 1692.941,171.267 L1684.118,215.383 L1664.706,215.383 L1696.471,56.561 L1715.882,56.561 L1705.294,113.031 C1703.53,118.325 1701.765,125.383 1700,130.677 C1708.823,116.561 1722.941,105.972 1740.588,105.972 C1761.765,105.972 1768.823,118.325 1768.823,135.972 C1767.059,137.736 1767.059,143.031 1765.294,148.325" id="Fill-17" sketch:type="MSShapeGroup"></path>
                <path d="M1809.412,167.737 L1809.412,178.325 C1809.412,194.207 1816.471,201.267 1834.118,201.267 C1844.706,201.267 1857.059,199.501 1865.883,195.973 L1865.883,211.855 C1855.294,215.383 1842.941,217.149 1828.823,217.149 C1800.588,217.149 1788.235,204.795 1788.235,180.089 C1788.235,144.796 1805.882,104.207 1850,104.207 C1872.941,104.207 1883.529,114.796 1883.529,130.677 C1883.529,148.325 1872.941,165.973 1809.412,167.737 L1809.412,167.737 Z M1848.235,120.09 C1830.588,120.09 1818.235,134.207 1812.941,153.619 C1855.294,153.619 1864.118,143.031 1864.118,132.443 C1864.118,125.383 1858.823,120.09 1848.235,120.09 L1848.235,120.09 Z" id="Fill-18" sketch:type="MSShapeGroup"></path>
                <path d="M1920.588,188.913 C1918.823,195.973 1920.588,201.267 1927.647,201.267 L1936.471,201.267 L1932.941,215.383 C1929.412,215.383 1924.118,217.149 1918.823,217.149 C1904.706,217.149 1895.882,211.855 1899.412,192.443 L1925.883,56.561 L1945.294,56.561 L1920.588,188.913" id="Fill-19" sketch:type="MSShapeGroup"></path>
                <path d="M2038.824,215.383 L2022.941,215.383 L2026.47,190.678 C2017.647,206.56 2003.529,217.149 1987.647,217.149 C1966.471,217.149 1957.647,201.267 1957.647,180.089 C1957.647,146.56 1975.294,105.972 2021.176,105.972 C2030,105.972 2037.059,107.736 2042.353,107.736 L2052.941,56.561 L2072.353,56.561 L2038.824,215.383 L2038.824,215.383 Z M1991.177,201.267 C2007.059,201.267 2026.471,174.795 2031.765,150.089 L2037.059,125.383 C2031.765,123.619 2024.706,121.855 2017.647,121.855 C1987.647,121.855 1977.059,153.619 1977.059,178.325 C1977.059,194.207 1982.353,201.267 1991.177,201.267 L1991.177,201.267 Z" id="Fill-20" sketch:type="MSShapeGroup"></path>
            </g>
        </g>
    </g>
</svg>