<?xml version="1.0" encoding="UTF-8" standalone="no"?>
<svg width="112px" height="152px" viewBox="0 0 112 152" version="1.1" xmlns="http://www.w3.org/2000/svg" xmlns:xlink="http://www.w3.org/1999/xlink" xmlns:sketch="http://www.bohemiancoding.com/sketch/ns">
    <!-- Generator: Sketch 3.3.2 (12043) - http://www.bohemiancoding.com/sketch -->
    <title>Artboard 1 Copy</title>
    <desc>Created with Sketch.</desc>
    <defs></defs>
    <g id="Page-1" stroke="none" stroke-width="1" fill="none" fill-rule="evenodd" sketch:type="MSPage">
        <g id="Artboard-1-Copy" sketch:type="MSArtboardGroup" fill="#000000">
            <path d="M15.2486757,141.472758 C15.2486757,141.472758 17.4804865,151.70099 28.9686486,151.70099 L80.9124324,151.70099 C92.4,151.70099 94.6318108,141.472758 94.6318108,141.472758 L104.886486,41.1872297 L4.99459459,41.1872297 L15.2486757,141.472758 L15.2486757,141.472758 Z M74.9189189,56.2576277 C74.9189189,53.4828158 77.1548919,51.2342614 79.9135135,51.2342614 C82.6721351,51.2342614 84.9087027,53.4828158 84.9087027,56.2576277 L79.9135135,131.607824 C79.9135135,134.382636 77.6772432,136.63119 74.9189189,136.63119 C72.1608919,136.63119 69.9246216,134.382038 69.9246216,131.607824 L74.9189189,56.2576277 L74.9189189,56.2576277 Z M49.9459459,56.2576277 C49.9459459,53.4828158 52.1825135,51.2342614 54.9405405,51.2342614 C57.6991622,51.2342614 59.9351351,53.4828158 59.9351351,56.2576277 L59.9351351,131.607824 C59.9351351,134.382636 57.6991622,136.63119 54.9405405,136.63119 C52.1819189,136.63119 49.9459459,134.382038 49.9459459,131.607824 L49.9459459,56.2576277 L49.9459459,56.2576277 Z M29.9675676,51.2336634 C32.7261892,51.2336634 34.9621622,53.4822178 34.9621622,56.2570297 L39.9570541,131.607525 C39.9570541,134.382038 37.7207838,136.630592 34.9621622,136.630592 C32.2038378,136.630592 29.9675676,134.38144 29.9675676,131.607525 L24.972973,56.2576277 C24.972973,53.4828158 27.2095405,51.2336634 29.9675676,51.2336634 L29.9675676,51.2336634 Z M101.889432,21.1015386 L79.9135135,21.1015386 L79.9135135,11.0470317 C79.9135135,3.42616634 77.4628919,1 69.9246216,1 L39.9564595,1 C33.0422162,1 29.9675676,4.36864554 29.9675676,11.0470317 L29.9675676,21.1021366 L7.99164865,21.1021366 C3.5747027,21.1021366 0,24.4737723 0,28.6404752 C0,32.8077762 3.5747027,36.1797109 7.99164865,36.1797109 L101.889432,36.1797109 C106.306378,36.1797109 109.881081,32.8077762 109.881081,28.6404752 C109.881081,24.4737723 106.306378,21.1015386 101.889432,21.1015386 L101.889432,21.1015386 Z M69.9246216,21.1015386 L39.9570541,21.1015386 L39.9576486,11.0464337 L69.9252162,11.0464337 L69.9252162,21.1015386 L69.9246216,21.1015386 L69.9246216,21.1015386 Z" id="Imported-Layers" sketch:type="MSShapeGroup"></path>
        </g>
    </g>
</svg>